<svg width="110" height="135" viewBox="0 0 110 135" fill="none" xmlns="http://www.w3.org/2000/svg">
<g filter="url(#filter0_d_0_3)">
<path d="M77.715 52.641V24.668C77.715 19.3555 73.3947 15.0352 68.0822 15.0352H19.6252C14.3205 15.0352 10.0002 19.3555 10.0002 24.668V95.34C10.0002 100.645 14.3205 104.965 19.6252 104.965H68.0782C73.3907 104.965 77.711 100.645 77.711 95.34L77.7149 67.36C81.2422 66.7897 83.9493 63.6998 83.9493 60.0006C83.9493 56.3014 81.2541 53.2231 77.715 52.641ZM68.0783 16.539C72.5588 16.539 76.2072 20.1874 76.2072 24.6679V52.5269H73.1603V27.8159C73.1603 23.5347 70.3517 19.894 66.4845 18.644C65.8244 17.8198 65.0197 17.1088 64.129 16.5385L68.0783 16.539ZM67.8596 20.9492C70.1448 22.3828 71.6604 24.9297 71.6604 27.8164V52.5314H68.6135L68.6096 24.6684C68.6096 23.3559 68.34 22.0938 67.8596 20.9492ZM58.9573 103.461H19.6253C15.1448 103.461 11.5042 99.8206 11.5042 95.3401V24.6681C11.5042 20.1876 15.1448 16.5392 19.6253 16.5392H58.9573C60.8011 16.5392 62.5081 17.1603 63.8792 18.1915C64.5315 18.6915 65.1136 19.2853 65.594 19.9571C66.5471 21.2891 67.1096 22.9141 67.1096 24.668V52.527H59.1994C55.0783 52.527 51.7306 55.8747 51.7306 59.9958C51.7306 64.1169 55.0783 67.4646 59.1994 67.4646H67.1096V95.3356C67.1096 97.0895 66.5471 98.7145 65.6057 100.039C65.1252 100.711 64.5432 101.3 63.883 101.804C62.5041 102.839 60.8011 103.461 58.9573 103.461ZM68.6096 67.4692H71.6565V92.1922C71.6565 94.3563 70.8244 96.3914 69.2893 97.9266C68.8479 98.368 68.3674 98.7586 67.844 99.0711C68.3362 97.9188 68.6057 96.6649 68.6057 95.3406L68.6096 67.4692ZM68.0783 103.461H64.1291C65.0197 102.899 65.8127 102.188 66.4768 101.367C67.9299 100.906 69.2541 100.106 70.3557 98.9924C72.1721 97.1682 73.1721 94.7502 73.1643 92.1955L73.1604 67.4685H76.2073V95.3395C76.2112 99.82 72.5588 103.461 68.0783 103.461ZM77.715 65.8362C77.3127 65.926 76.9142 65.9651 76.4923 65.9651H59.1993C55.9102 65.9651 53.2345 63.2893 53.2345 60.0003C53.2345 56.7113 55.9103 54.0355 59.1993 54.0355H76.4803C76.9022 54.0355 77.3123 54.0746 77.7147 54.1644C80.41 54.7347 82.4452 57.1332 82.4452 60.0003C82.4452 62.8674 80.4103 65.2737 77.715 65.8362ZM58.781 63.8674C56.6482 63.8674 54.9177 62.133 54.9177 60.0041C54.9177 57.8752 56.6521 56.1408 58.781 56.1408C60.9138 56.1408 62.6443 57.8752 62.6443 60.0041C62.6443 62.133 60.9099 63.8674 58.781 63.8674ZM58.781 57.6408C57.4802 57.6408 56.4216 58.6994 56.4216 60.0002C56.4216 61.301 57.4802 62.3596 58.781 62.3596C60.0818 62.3596 61.1404 61.301 61.1404 60.0002C61.1404 58.6994 60.0818 57.6408 58.781 57.6408ZM96.691 27.1678H91.4879C89.6637 27.1678 88.1793 28.6522 88.1793 30.4764V80.9644V80.9839C88.1793 81.0347 88.191 81.0855 88.1988 81.1245C88.2106 81.1636 88.2184 81.2066 88.2301 81.2456L88.2418 81.2652L91.1598 88.8433L92.2223 91.6011C92.5426 92.3628 93.2535 92.8433 94.0856 92.8433C94.9176 92.8433 95.6403 92.3628 95.9723 91.5816L97.027 88.8433L99.945 81.2652L99.9567 81.2456C99.9685 81.2066 99.9763 81.1636 99.988 81.1245C99.988 81.0738 99.9997 81.023 99.9997 80.9722V30.4762C99.9997 28.6481 98.5152 27.1678 96.691 27.1678ZM89.6832 35.828H90.7105V78.496H90.7027C90.3433 78.4647 89.9996 78.6054 89.6793 78.8358L89.6832 35.828ZM95.9605 79.82C95.9097 79.902 95.8511 79.9997 95.8004 80.0817C95.7183 79.9723 95.6402 79.8317 95.5894 79.7301C95.398 79.4098 95.1714 79.0231 94.8394 78.7731V35.8281H95.9605V79.82ZM93.3355 78.7458H93.3316C92.9918 79.0075 92.7613 79.3981 92.5699 79.7302C92.5113 79.8317 92.4293 79.9724 92.3511 80.0817C92.3121 80.0231 92.2613 79.9411 92.2222 79.8708C92.2222 79.8669 92.2183 79.8669 92.2183 79.863L92.2144 35.828H93.3355V78.7458ZM97.4644 35.8278H98.4956V78.8788C98.1753 78.6171 97.8237 78.4686 97.4644 78.496V35.8278ZM89.6832 30.4723C89.6832 29.4801 90.484 28.6676 91.4879 28.6676H96.691C97.6832 28.6676 98.4957 29.4801 98.4957 30.4723V34.3239H89.6832V30.4723ZM94.5738 91.0073C94.4527 91.2963 94.191 91.3393 94.0816 91.3393C93.9801 91.3393 93.7222 91.3003 93.609 91.0385L92.9488 89.3237H95.2261L94.5738 91.0073ZM95.8082 87.8198H92.3707L90.023 81.726L89.7613 81.0541C89.9722 80.7221 90.2027 80.4213 90.3941 80.2221C90.4527 80.1518 90.5152 80.101 90.566 80.0619C90.5972 80.101 90.6363 80.1635 90.6754 80.2221C90.734 80.3119 90.7965 80.4213 90.8472 80.5033C91.148 81.0151 91.5699 81.726 92.3628 81.726C93.1441 81.726 93.5659 81.0151 93.8667 80.4916C93.9175 80.4096 93.9761 80.3198 94.0269 80.2221C94.0464 80.1909 94.0582 80.1713 94.0777 80.1401C94.0972 80.1713 94.1089 80.1909 94.1285 80.2221C94.1792 80.3237 94.2378 80.4135 94.2886 80.4916C94.5894 81.0112 95.0113 81.726 95.7925 81.726C96.5855 81.726 97.0073 81.0151 97.3159 80.5033C97.355 80.4213 97.4175 80.3119 97.4878 80.2221C97.5191 80.1635 97.5581 80.101 97.5894 80.0619C97.6402 80.101 97.6987 80.1518 97.7612 80.2221C97.9605 80.433 98.2027 80.7416 98.4136 81.0736L98.1636 81.726L95.8082 87.8198Z" fill="black"/>
</g>
<defs>
<filter id="filter0_d_0_3" x="-4" y="0" width="118" height="143" filterUnits="userSpaceOnUse" color-interpolation-filters="sRGB">
<feFlood flood-opacity="0" result="BackgroundImageFix"/>
<feColorMatrix in="SourceAlpha" type="matrix" values="0 0 0 0 0 0 0 0 0 0 0 0 0 0 0 0 0 0 127 0" result="hardAlpha"/>
<feOffset dy="4"/>
<feGaussianBlur stdDeviation="2"/>
<feComposite in2="hardAlpha" operator="out"/>
<feColorMatrix type="matrix" values="0 0 0 0 0 0 0 0 0 0 0 0 0 0 0 0 0 0 0.25 0"/>
<feBlend mode="normal" in2="BackgroundImageFix" result="effect1_dropShadow_0_3"/>
<feBlend mode="normal" in="SourceGraphic" in2="effect1_dropShadow_0_3" result="shape"/>
</filter>
</defs>
</svg>
