<svg width="50" height="58" viewBox="0 0 60 58" fill="none" xmlns="http://www.w3.org/2000/svg">
<path d="M0 32.834V49.042C0.00250902 51.3193 0.90825 53.5027 2.51851 55.113C4.12878 56.7234 6.31206 57.6292 8.58938 57.6319H51.2959C53.5732 57.6292 55.7565 56.7234 57.3668 55.113C58.977 53.5027 59.8828 51.3193 59.8853 49.042V5.96778C59.8835 4.38556 59.2542 2.86865 58.1354 1.74985C57.0166 0.631055 55.4997 0.00174694 53.9175 0H20.1465C18.5643 0.0017443 17.0474 0.631051 15.9286 1.74985C14.8098 2.86865 14.1805 4.38556 14.1787 5.96778V26.8662H5.96778C4.38556 26.868 2.86865 27.4973 1.74985 28.6161C0.631051 29.7349 0.0017443 31.2518 0 32.834ZM17.1787 49.042V5.96778C17.1796 5.18095 17.4926 4.42659 18.0489 3.87021C18.6053 3.31384 19.3597 3.00088 20.1465 3H53.9175C54.7043 3.00088 55.4587 3.31384 56.0151 3.87021C56.5714 4.42659 56.8844 5.18095 56.8853 5.96778V49.042C56.8836 50.524 56.2942 51.9447 55.2464 52.9927C54.1986 54.0406 52.7778 54.6301 51.2959 54.6319H15.106C16.4449 53.0775 17.1806 51.0936 17.1787 49.042ZM3 32.834C3.00088 32.0472 3.31384 31.2928 3.87021 30.7365C4.42659 30.1801 5.18095 29.8671 5.96778 29.8662H14.1787V49.042C14.1787 50.5244 13.5898 51.9461 12.5416 52.9943C11.4934 54.0425 10.0718 54.6314 8.58936 54.6314C7.10697 54.6314 5.6853 54.0425 4.63709 52.9943C3.58888 51.9461 3 50.5244 3 49.042V32.834Z" fill="black"/>
<path d="M49.2891 16.1348H25.1304C24.7325 16.1348 24.351 16.2928 24.0697 16.5741C23.7884 16.8554 23.6304 17.237 23.6304 17.6348C23.6304 18.0326 23.7884 18.4141 24.0697 18.6954C24.351 18.9767 24.7325 19.1348 25.1304 19.1348H49.2891C49.6869 19.1348 50.0684 18.9767 50.3497 18.6954C50.631 18.4141 50.7891 18.0326 50.7891 17.6348C50.7891 17.237 50.631 16.8554 50.3497 16.5741C50.0684 16.2928 49.6869 16.1348 49.2891 16.1348Z" fill="black"/>
<path d="M49.2891 38.4971H25.1304C24.7325 38.4971 24.351 38.6551 24.0697 38.9364C23.7884 39.2177 23.6304 39.5993 23.6304 39.9971C23.6304 40.3949 23.7884 40.7765 24.0697 41.0578C24.351 41.3391 24.7325 41.4971 25.1304 41.4971H49.2891C49.6869 41.4971 50.0684 41.3391 50.3497 41.0578C50.631 40.7765 50.7891 40.3949 50.7891 39.9971C50.7891 39.5993 50.631 39.2177 50.3497 38.9364C50.0684 38.6551 49.6869 38.4971 49.2891 38.4971Z" fill="black"/>
<path d="M49.2891 27.3164H25.1304C24.7325 27.3164 24.351 27.4745 24.0697 27.7558C23.7884 28.0371 23.6304 28.4186 23.6304 28.8164C23.6304 29.2143 23.7884 29.5958 24.0697 29.8771C24.351 30.1584 24.7325 30.3164 25.1304 30.3164H49.2891C49.6869 30.3164 50.0684 30.1584 50.3497 29.8771C50.631 29.5958 50.7891 29.2143 50.7891 28.8164C50.7891 28.4186 50.631 28.0371 50.3497 27.7558C50.0684 27.4745 49.6869 27.3164 49.2891 27.3164Z" fill="black"/>
</svg>
