<svg width="94" height="48" viewBox="0 0 94 48" fill="none" xmlns="http://www.w3.org/2000/svg">
<path d="M66.7754 46.0244H63.7754V40.8257C63.7754 38.0112 63.063 35.2256 61.7158 32.7695C60.9443 31.3633 59.9839 30.0859 58.8613 28.9736C55.6953 25.7964 51.4849 24.0503 47 24.0503C40.8745 24.0503 35.2354 27.3911 32.2842 32.7695C30.937 35.2256 30.2246 38.0112 30.2246 40.8257V46.0244H27.2246V40.8257C27.2246 37.5083 28.0649 34.2231 29.6543 31.3262C33.1323 24.9878 39.7788 21.0503 47 21.0503C52.2881 21.0503 57.2529 23.1099 60.98 26.8491C62.3008 28.1587 63.4355 29.667 64.3457 31.3262C65.9351 34.2231 66.7754 37.5083 66.7754 40.8257V46.0244Z" fill="black"/>
<path d="M47 24.0488C40.501 24.0488 35.2134 18.7612 35.2134 12.2622C35.2134 5.76318 40.501 0.475586 47 0.475586C53.499 0.475586 58.7866 5.76318 58.7866 12.2622C58.7866 18.7612 53.499 24.0488 47 24.0488ZM47 3.47559C42.1553 3.47559 38.2134 7.41748 38.2134 12.2622C38.2134 17.1069 42.1553 21.0488 47 21.0488C51.8447 21.0488 55.7866 17.1069 55.7866 12.2622C55.7866 7.41748 51.8447 3.47559 47 3.47559Z" fill="black"/>
<path d="M75.9834 26.9487C70.1846 26.9487 65.4673 22.2314 65.4673 16.4331C65.4673 10.6343 70.1846 5.91699 75.9834 5.91699C81.7822 5.91699 86.4995 10.6343 86.4995 16.4331C86.4995 22.2314 81.7822 26.9487 75.9834 26.9487ZM75.9834 8.91699C71.8389 8.91699 68.4673 12.2886 68.4673 16.4331C68.4673 20.5771 71.8389 23.9487 75.9834 23.9487C80.1279 23.9487 83.4995 20.5771 83.4995 16.4331C83.4995 12.2886 80.1279 8.91699 75.9834 8.91699Z" fill="black"/>
<path d="M92 47.5244H2L0.5 46.0244V41.4609C0.5 36.7866 2.32178 32.3901 5.62988 29.0815C8.93848 25.7734 13.3384 23.9517 18.02 23.9517C23.6016 23.9517 28.896 26.6484 32.1821 31.1655L29.7563 32.9302C27.0327 29.1865 22.645 26.9517 18.02 26.9517C14.1396 26.9517 10.4927 28.4614 7.75098 31.2026C5.00977 33.9443 3.5 37.5879 3.5 41.4609V44.5244H90.5V41.4609C90.5 37.5879 88.9902 33.9443 86.249 31.2026C83.5073 28.4614 79.8604 26.9517 75.98 26.9517C71.355 26.9517 66.9673 29.1865 64.2437 32.9302L61.8179 31.1655C65.104 26.6484 70.3984 23.9517 75.98 23.9517C80.6616 23.9517 85.0615 25.7734 88.3701 29.0815C91.6782 32.3901 93.5 36.7866 93.5 41.4609V46.0244L92 47.5244Z" fill="black"/>
<path d="M18.0166 26.9487C12.2178 26.9487 7.50049 22.2314 7.50049 16.4331C7.50049 10.6343 12.2178 5.91699 18.0166 5.91699C23.8154 5.91699 28.5327 10.6343 28.5327 16.4331C28.5327 22.2314 23.8154 26.9487 18.0166 26.9487ZM18.0166 8.91699C13.8721 8.91699 10.5005 12.2886 10.5005 16.4331C10.5005 20.5771 13.8721 23.9487 18.0166 23.9487C22.1611 23.9487 25.5327 20.5771 25.5327 16.4331C25.5327 12.2886 22.1611 8.91699 18.0166 8.91699Z" fill="black"/>
</svg>
