<svg xmlns="http://www.w3.org/2000/svg" data-name="Layer 1" viewBox="0 0 32 40" x="0px" y="0px"><title>59</title><path d="M28,2H10A2,2,0,0,0,8,4V8H4a2,2,0,0,0-2,2V28a2,2,0,0,0,2,2H22a2,2,0,0,0,2-2V24h4a2,2,0,0,0,2-2V4A2,2,0,0,0,28,2ZM24,22V10a2,2,0,0,0-2-2H10V4H28V22Z"/><text x="0" y="47" fill="#000000" font-size="5px" font-weight="bold" font-family="'Helvetica Neue', Helvetica, Arial-Unicode, Arial, Sans-serif">Created by bamicon</text><text x="0" y="52" fill="#000000" font-size="5px" font-weight="bold" font-family="'Helvetica Neue', Helvetica, Arial-Unicode, Arial, Sans-serif">from the Noun Project</text></svg>