<svg width="83" height="83" viewBox="0 0 83 83" fill="none" xmlns="http://www.w3.org/2000/svg">
<path fill-rule="evenodd" clip-rule="evenodd" d="M62.651 34.375H51.617V22.936C51.617 21.698 50.354 20.694 49.117 20.696C47.88 20.696 46.617 21.702 46.617 22.936V34.375H35.583C34.345 34.375 33.343 35.636 33.343 36.875C33.345 38.114 34.347 39.375 35.585 39.375H46.617V50.004C46.617 51.242 47.878 52.244 49.117 52.244C50.356 52.242 51.617 51.24 51.617 50.002V39.375H62.651C63.889 39.375 64.893 38.112 64.891 36.875C64.892 35.638 63.886 34.375 62.651 34.375Z" fill="black"/>
<path fill-rule="evenodd" clip-rule="evenodd" d="M74.508 -0.000999451H51.227H23.727C16.166 -0.000999451 15.413 7.165 15.413 8.312V15.937H13.504H9.35498H8.81998C4.22798 15.937 0.505981 19.66 0.505981 24.251V74.686C0.505981 79.276 4.22898 82.999 8.81998 82.999H59.6C64.192 82.999 67.92 79.28 68.074 74.686V70.053V67.061H74.51C82.824 67.061 82.824 58.747 82.824 58.747V31.619V8.312C82.822 3.723 79.1 -0.000999451 74.508 -0.000999451ZM37.541 4.75C38.597 4.75 39.452 5.605 39.452 6.662C39.452 7.718 38.597 8.573 37.541 8.573C36.484 8.573 35.629 7.718 35.629 6.662C35.629 5.605 36.484 4.75 37.541 4.75ZM30.872 4.75C31.928 4.75 32.783 5.605 32.783 6.662C32.783 7.718 31.928 8.573 30.872 8.573C29.815 8.573 28.96 7.718 28.96 6.662C28.96 5.605 29.815 4.75 30.872 4.75ZM24.203 4.75C25.259 4.75 26.114 5.605 26.114 6.662C26.114 7.718 25.259 8.573 24.203 8.573C23.146 8.573 22.291 7.718 22.291 6.662C22.291 5.605 23.146 4.75 24.203 4.75ZM63.614 72.191C63.614 76.195 61.087 78.723 57.081 78.723H11.336C7.32998 78.723 4.80298 76.195 4.80298 72.191V29.188H15.412V35.441V58.748C15.412 63.338 19.135 67.061 23.726 67.061H47.007H63.595L63.614 70.053V72.191ZM78.523 31.619V56.252C78.523 60.258 75.996 62.784 71.99 62.784H47.006V62.785H26.244C22.238 62.785 19.711 60.257 19.711 56.253V35.441V13.25H78.523V31.619Z" fill="black"/>
</svg>
